<?xml version="1.0" encoding="utf-8"?>
<!-- Generator: Adobe Illustrator 25.0.1, SVG Export Plug-In . SVG Version: 6.00 Build 0)  -->
<svg version="1.1" id="Layer_1" xmlns="http://www.w3.org/2000/svg" xmlns:xlink="http://www.w3.org/1999/xlink" x="0px" y="0px"
	 viewBox="0 0 840 160" style="enable-background:new 0 0 840 160;" xml:space="preserve">
<style type="text/css">
	.st0{fill:none;}
	.st1{fill:#1A1A1A;}
	.st2{fill:#FFFFFF;}
</style>
<rect y="0.2" class="st0" width="840" height="160"/>
<g>
	<path class="st1" d="M122.8,27.9H66.2c-13.1,0-23.8,10.7-23.8,23.8v56.6c0,13.1,10.7,23.8,23.8,23.8h56.5
		c13.1,0,23.8-10.7,23.8-23.8V51.7C146.6,38.6,135.9,27.9,122.8,27.9z M137,84.9c-2.6,0.7-5.3,1.3-7.9,1.8c-0.3,1.6-0.7,3.2-1.3,4.7
		c2,1.8,4,3.7,6,5.6c-1.6,2.8-3.3,5.7-4.9,8.5c-2.6-0.7-5.2-1.5-7.8-2.4c-1.1,1.2-2.2,2.4-3.4,3.4c0.8,2.6,1.7,5.2,2.4,7.8
		c-2.8,1.6-5.7,3.3-8.5,4.9c-1.9-1.9-3.8-3.9-5.6-5.9c-1.5,0.5-3.1,0.9-4.7,1.3c-0.6,2.7-1.2,5.3-1.8,7.9c-3.3,0-6.6,0-9.8,0
		c-0.7-2.6-1.3-5.3-1.8-7.9c-1.6-0.3-3.2-0.7-4.7-1.3c-1.8,2-3.7,4-5.6,5.9c-2.8-1.6-5.7-3.3-8.5-4.9c0.7-2.6,1.5-5.2,2.4-7.8
		c-1.2-1.1-2.4-2.2-3.4-3.4c-2.6,0.8-5.2,1.7-7.8,2.4c-1.6-2.8-3.3-5.7-4.9-8.5c1.9-1.9,3.9-3.8,6-5.6c-0.5-1.5-0.9-3.1-1.3-4.7
		c-2.7-0.6-5.3-1.2-7.9-1.8c0-3.3,0-6.6,0-9.8c2.6-0.7,5.3-1.3,7.9-1.8c0.3-1.6,0.7-3.2,1.3-4.7c-2-1.8-4-3.7-6-5.5
		c1.6-2.8,3.3-5.7,4.9-8.5c2.6,0.7,5.2,1.5,7.8,2.4c1.1-1.2,2.2-2.4,3.4-3.4c-0.8-2.6-1.7-5.2-2.4-7.8c2.8-1.6,5.7-3.3,8.5-4.9
		c1.9,1.9,3.8,3.9,5.6,6c1.5-0.5,3.1-0.9,4.7-1.3c0.6-2.7,1.2-5.3,1.8-7.9c3.3,0,6.6,0,9.8,0c0.7,2.6,1.3,5.3,1.8,7.9
		c1.6,0.3,3.2,0.7,4.7,1.3c1.8-2,3.7-4,5.6-6c2.8,1.6,5.7,3.3,8.5,4.9c-0.7,2.6-1.5,5.2-2.4,7.8c1.2,1.1,2.4,2.2,3.4,3.4
		c2.6-0.8,5.2-1.7,7.8-2.4c1.6,2.8,3.3,5.7,4.9,8.5c-1.9,1.9-3.9,3.8-5.9,5.6c0.5,1.5,0.9,3.1,1.3,4.7c2.6,0.6,5.3,1.2,7.9,1.8
		C137,78.4,137,81.6,137,84.9z"/>
	<path class="st1" d="M117.9,75.9c-1.8,0-3.3,1.1-3.9,2.7l-7.7,0.1l-1.5,1.2l-4.6,18.6l-7.7-47.3L90.8,51l-8.9,41.9L77,64.2l-0.5,0
		L72.9,80l-15.4,0.1L73,80.3l0.1-0.1l3.6-14.7l4.6,30.2l1,0L91.5,56l7.1,49.2l2.6,0.1l6.2-23.6l6.5,0.1c0.6,1.6,2.2,2.7,3.9,2.7
		c2.4,0,4.3-1.9,4.3-4.3C122.2,77.8,120.2,75.9,117.9,75.9z"/>
</g>
<g>
	<path class="st2" d="M641.1,63.7c0,0-4.3-5.7-13.5-5.7s-21.3,5.3-21.3,21.9s12.1,22.1,21.3,22.1s12.2-4.7,13.5-7.1
		c0,10.1-9.3,15.1-21.1,9.2l-5.3,11.4c15.2,7.7,37.5,5.9,37.5-20.6V59h-9.6L641.1,63.7z M629.9,90.1c-3.7,0-9.4-2.6-9.4-10.2
		s5.6-10.2,9.4-10.2s9.4,2.6,9.4,10.2C639.3,87.6,633.7,90.1,629.9,90.1z"/>
	<path class="st2" d="M776.7,65.9l-2.3-6.8h-9.6v42h13.3c0,0,0-15.3,0-21.1c0-7.3,6.3-10.8,13.1-8.2l5.5-12
		C782.6,53.5,776.7,65.9,776.7,65.9z"/>
	<path class="st2" d="M511.6,65.9l-2.3-6.8h-9.6v42H513c0,0,0-15.3,0-21.1c0-7.3,6.3-10.8,13.1-8.2l5.5-12
		C517.5,53.5,511.6,65.9,511.6,65.9z"/>
	<path class="st2" d="M374.1,66.2c-6.5-13.2-20.1-8.7-23.4-0.3l-2.3-6.8h-9.6v42h13.4c0,0,0-15.3,0-21.1c0-11,12.3-11,12.3-0.4V101
		h14.2V79.5c0-0.1,0-0.1,0-0.2c0.5-10.4,12.2-10.2,12.2,0.2V101H405V82.6c0-4.9,0.3-11.6-2.5-16.4C395.9,54.7,379.9,55.4,374.1,66.2
		z"/>
	<path class="st2" d="M754.9,59h-9.6l-1.6,4.6c0,0-4.3-5.7-13.5-5.7s-21.3,6.2-21.3,21.9c0,15.6,12.1,22.1,21.3,22.1
		c10.8,0,13.5-7.1,13.5-7.1v6.1h11.2v-6V59z M732.5,90.1c-3.7,0-9.4-2.6-9.4-10.2s5.6-10.2,9.4-10.2s9.4,2.6,9.4,10.2
		C741.9,87.6,736.2,90.1,732.5,90.1z"/>
	<path class="st2" d="M682.5,57.1c-16.4,0-24.9,11.7-24.9,22.5s7.6,23.8,23.7,23.8s21.6-10.5,22.4-12.2l-8.8-5.8
		c-1.7,2.8-5.9,6-11.4,6c-4.4,0-9.4-2.9-11.1-7.9H704C704.9,71.6,698.9,57.1,682.5,57.1z M673.1,74.5c1.6-3.4,4.8-5.6,9-5.6
		c6.2,0,8.2,5.6,8.2,5.6H673.1z"/>
	<path class="st2" d="M435.9,57.1c-16.4,0-24.9,11.7-24.9,22.5s7.6,23.8,23.7,23.8c16.1,0,21.6-10.5,22.4-12.2l-8.8-5.8
		c-1.7,2.8-5.9,6-11.4,6c-4.4,0-9.4-2.9-11.1-7.9h31.5C458.3,71.6,452.3,57.1,435.9,57.1z M426.5,74.5c1.6-3.4,4.8-5.6,9-5.6
		c6.2,0,8.2,5.6,8.2,5.6H426.5z"/>
	<path class="st2" d="M310.6,57.1c-16.4,0-24.9,11.7-24.9,22.5s7.6,23.8,23.7,23.8s21.6-10.5,22.4-12.2l-8.8-5.8
		c-1.7,2.8-5.9,6-11.4,6c-4.4,0-9.4-2.9-11.1-7.9h31.5C333.1,71.6,327.1,57.1,310.6,57.1z M301.2,74.5c1.6-3.4,4.8-5.6,9-5.6
		c6.2,0,8.2,5.6,8.2,5.6H301.2z"/>
	<path class="st2" d="M236,57.1c-16.4,0-24.9,11.7-24.9,22.5s7.6,23.8,23.7,23.8s21.6-10.5,22.4-12.2l-8.8-5.8
		c-1.7,2.8-5.9,6-11.4,6c-4.4,0-9.4-2.9-11.1-7.9h31.6C258.5,71.6,252.4,57.1,236,57.1z M226.6,74.5c1.6-3.4,4.8-5.6,9.1-5.6
		c6.2,0,8.2,5.6,8.2,5.6H226.6z"/>
	<polygon class="st2" points="482.6,46.3 469.3,49 469.3,59 461.4,59 461.4,69.7 469.3,69.7 469.3,101 482.6,101 482.6,69.7 
		493.8,69.7 493.8,59 482.6,59 	"/>
	<polygon class="st2" points="196.6,46.3 183.2,49 183.2,59 175.4,59 175.4,69.7 183.2,69.7 183.2,101 196.6,101 196.6,69.7 
		207.8,69.7 207.8,59 196.6,59 	"/>
	<rect x="264.3" y="34.7" class="st2" width="14.6" height="66.3"/>
	<circle class="st2" cx="592.5" cy="94.8" r="7.3"/>
	<path class="st2" d="M563,81.1c0,12.1-15.8,12-15.8,0c0-8.2,0.1-14.2,0.1-22.1h-13.4c0,0,0,5.6,0,22.1c0,19,14.4,22,23.9,18.9
		c2-0.7,3.7-1.7,5.1-2.9c-1.2,9.9-10.8,11.9-20.9,7.1l-5.3,11.4c15.2,7.2,38.7,6.1,38.7-20.7V59h-12.4L563,81.1L563,81.1z"/>
</g>
</svg>
