<?xml version="1.0" encoding="utf-8"?>
<!-- Generator: Adobe Illustrator 25.0.1, SVG Export Plug-In . SVG Version: 6.00 Build 0)  -->
<svg version="1.1" id="Layer_1" xmlns="http://www.w3.org/2000/svg" xmlns:xlink="http://www.w3.org/1999/xlink" x="0px" y="0px"
	 viewBox="0 0 220 220" style="enable-background:new 0 0 220 220;" xml:space="preserve">
<style type="text/css">
	.st0{fill:#04DB61;}
	.st1{fill:none;}
</style>
<g>
	<path class="st0" d="M169.74,0H50.26C22.5,0,0,22.5,0,50.26v119.48C0,197.5,22.5,220,50.26,220h119.48
		c27.76,0,50.26-22.5,50.26-50.26V50.26C220,22.5,197.5,0,169.74,0z M199.75,120.37c-5.56,1.43-11.14,2.72-16.75,3.88
		c-0.66,3.39-1.55,6.7-2.65,9.91c4.28,3.81,8.47,7.72,12.57,11.73c-3.46,5.99-6.92,11.98-10.37,17.97
		c-5.53-1.55-11.02-3.22-16.46-5.02c-2.25,2.58-4.66,4.99-7.24,7.24c1.8,5.44,3.48,10.93,5.02,16.46
		c-5.99,3.46-11.98,6.92-17.97,10.37c-4.02-4.1-7.93-8.29-11.73-12.57c-3.21,1.1-6.51,2-9.91,2.65c-1.16,5.61-2.45,11.19-3.88,16.75
		c-6.92,0-13.83,0-20.75,0c-1.43-5.56-2.72-11.14-3.88-16.75c-3.39-0.66-6.7-1.55-9.91-2.65c-3.81,4.28-7.72,8.47-11.73,12.57
		c-5.99-3.46-11.98-6.92-17.97-10.37c1.55-5.53,3.22-11.02,5.02-16.46c-2.58-2.25-4.99-4.66-7.24-7.24
		c-5.44,1.8-10.93,3.48-16.46,5.02c-3.46-5.99-6.92-11.98-10.37-17.97c4.1-4.02,8.29-7.93,12.57-11.73c-1.1-3.21-2-6.51-2.65-9.91
		c-5.61-1.16-11.19-2.45-16.75-3.88c0-6.92,0-13.83,0-20.75c5.56-1.43,11.14-2.72,16.75-3.88c0.66-3.39,1.55-6.7,2.65-9.91
		c-4.28-3.81-8.47-7.72-12.57-11.73c3.46-5.99,6.92-11.98,10.37-17.97c5.53,1.55,11.02,3.22,16.46,5.02
		c2.25-2.58,4.66-4.99,7.24-7.24c-1.8-5.44-3.48-10.93-5.02-16.46c5.99-3.46,11.98-6.92,17.97-10.37c4.02,4.1,7.93,8.29,11.73,12.57
		c3.21-1.1,6.51-2,9.91-2.65c1.16-5.61,2.45-11.19,3.88-16.75c6.92,0,13.83,0,20.75,0c1.43,5.56,2.72,11.14,3.88,16.75
		c3.39,0.66,6.7,1.55,9.91,2.65c3.81-4.28,7.72-8.47,11.73-12.57c5.99,3.46,11.98,6.92,17.97,10.37
		c-1.55,5.53-3.22,11.02-5.02,16.46c2.58,2.25,4.99,4.66,7.24,7.24c5.44-1.8,10.93-3.48,16.46-5.02
		c3.46,5.99,6.92,11.98,10.37,17.97c-4.1,4.02-8.29,7.93-12.57,11.73c1.1,3.21,2,6.51,2.65,9.91c5.61,1.16,11.19,2.45,16.75,3.88
		C199.75,106.54,199.75,113.46,199.75,120.37z"/>
	<path class="st0" d="M159.37,101.35c-3.79,0-7.02,2.35-8.35,5.66l-16.21,0.13l-3.12,2.42l-9.71,39.37l-16.16-99.98l-3.65-0.12
		l-18.8,88.53L73.02,76.53l-1.06-0.04l-7.61,33.59l-32.61,0.26l32.82,0.26l0.26-0.2l7.55-31l9.81,63.9l2.13,0.06l19.26-84.03
		l15.09,103.94l5.45,0.27l13.17-49.95l13.74,0.11c1.33,3.32,4.56,5.66,8.35,5.66c4.98,0,9.01-4.04,9.01-9.01
		C168.39,105.39,164.35,101.35,159.37,101.35z"/>
</g>
<rect x="-40" y="-40" class="st1" width="300" height="300"/>
</svg>
